<?xml version="1.0" encoding="UTF-8"?>
<svg width="64" height="64" viewBox="0 0 64 64" xmlns="http://www.w3.org/2000/svg">
  <!-- 发光效果 -->
  <defs>
    <filter id="glow">
      <feGaussianBlur stdDeviation="2" result="coloredBlur"/>
      <feMerge>
        <feMergeNode in="coloredBlur"/>
        <feMergeNode in="SourceGraphic"/>
      </feMerge>
    </filter>
  </defs>

  <!-- 斗篷背景 -->
  <path d="M16 20 C16 40, 48 40, 48 20" fill="#2D3748" filter="url(#glow)">
    <animate attributeName="d" 
      values="M16 20 C16 40, 48 40, 48 20;M16 22 C16 42, 48 42, 48 22;M16 20 C16 40, 48 40, 48 20" 
      dur="3s" repeatCount="indefinite"/>
  </path>

  <!-- 骷髅头饰 -->
  <g transform="translate(24, 8)">
    <path d="M8 4 L16 4 L18 8 L6 8 Z" fill="#E2E8F0"/>
    <circle cx="9" cy="6" r="1" fill="#4299E1"/>
    <circle cx="15" cy="6" r="1" fill="#4299E1"/>
    <!-- 小蝙蝠翅膀 -->
    <path d="M4 6 L2 4 L4 2" stroke="#742A2A" fill="none">
      <animate attributeName="d" 
        values="M4 6 L2 4 L4 2;M4 6 L1 5 L4 2;M4 6 L2 4 L4 2" 
        dur="0.5s" repeatCount="indefinite"/>
    </path>
    <path d="M20 6 L22 4 L20 2" stroke="#742A2A" fill="none">
      <animate attributeName="d" 
        values="M20 6 L22 4 L20 2;M20 6 L23 5 L20 2;M20 6 L22 4 L20 2" 
        dur="0.5s" repeatCount="indefinite"/>
    </path>
  </g>

  <!-- 面具/面部 -->
  <g transform="translate(24, 16)">
    <rect x="2" y="2" width="12" height="16" fill="#1A202C" rx="2"/>
    <path d="M4 8 L12 8 L10 14 L6 14 Z" fill="#2B6CB0"/>
    <!-- 神秘符文 -->
    <path d="M6 10 L10 10 M8 9 L8 11" stroke="#90CDF4" stroke-width="0.5">
      <animate attributeName="opacity" values="0.3;1;0.3" dur="2s" repeatCount="indefinite"/>
    </path>
  </g>

  <!-- 法杖 -->
  <g transform="translate(12, 24) rotate(-15)">
    <line x1="0" y1="0" x2="16" y2="24" stroke="#4A5568" stroke-width="2"/>
    <circle cx="16" cy="24" r="3" fill="#4299E1">
      <animate attributeName="r" values="2;3;2" dur="2s" repeatCount="indefinite"/>
      <animate attributeName="fill" values="#4299E1;#90CDF4;#4299E1" dur="2s" repeatCount="indefinite"/>
    </circle>
  </g>

  <!-- 能量效果 -->
  <g opacity="0.5">
    <circle cx="32" cy="32" r="24" stroke="#90CDF4" stroke-width="0.5" fill="none">
      <animate attributeName="r" values="22;24;22" dur="3s" repeatCount="indefinite"/>
      <animate attributeName="opacity" values="0.2;0.4;0.2" dur="3s" repeatCount="indefinite"/>
    </circle>
    <circle cx="32" cy="32" r="28" stroke="#90CDF4" stroke-width="0.3" fill="none">
      <animate attributeName="r" values="26;28;26" dur="4s" repeatCount="indefinite"/>
      <animate attributeName="opacity" values="0.1;0.3;0.1" dur="4s" repeatCount="indefinite"/>
    </circle>
  </g>

  <!-- 魔法粒子 -->
  <g>
    <circle cx="20" cy="20" r="1" fill="#90CDF4">
      <animate attributeName="cy" values="20;16;20" dur="2s" repeatCount="indefinite"/>
      <animate attributeName="opacity" values="1;0;1" dur="2s" repeatCount="indefinite"/>
    </circle>
    <circle cx="44" cy="20" r="1" fill="#90CDF4">
      <animate attributeName="cy" values="20;16;20" dur="2.5s" repeatCount="indefinite"/>
      <animate attributeName="opacity" values="1;0;1" dur="2.5s" repeatCount="indefinite"/>
    </circle>
  </g>
</svg>
